HIERARCHY
ROOT Hips
{
    OFFSET 0.000000 0.000000 0.000000
    CHANNELS 6 Xposition Yposition Zposition Zrotation Xrotation Yrotation
    JOINT Chest
    {
        OFFSET -0.000000 0.078597 0.000000
        CHANNELS 3 Zrotation Xrotation Yrotation
        JOINT Chest2
        {
            OFFSET -0.000000 0.230468 0.000000
            CHANNELS 3 Zrotation Xrotation Yrotation
            JOINT Neck
            {
                OFFSET -0.000000 0.249638 0.000000
                CHANNELS 3 Zrotation Xrotation Yrotation
                JOINT Head
                {
                    OFFSET -0.000000 0.103998 0.019170
                    CHANNELS 3 Zrotation Xrotation Yrotation
                    End Site
                    {
                        OFFSET -0.000000 0.191701 0.000000
                    }
                }
            }
            JOINT LeftCollar
            {
                OFFSET 0.038274 0.205938 -0.001496
                CHANNELS 3 Zrotation Xrotation Yrotation
                JOINT LeftShoulder
                {
                    OFFSET 0.132388 0.000000 0.000000
                    CHANNELS 3 Zrotation Xrotation Yrotation
                    JOINT LeftElbow
                    {
                        OFFSET 0.250301 0.000000 0.000000
                        CHANNELS 3 Zrotation Xrotation Yrotation
                        JOINT LeftWrist
                        {
                            OFFSET 0.285291 0.000000 0.000000
                            CHANNELS 3 Zrotation Xrotation Yrotation
                            End Site
                            {
                                OFFSET 0.000000 -0.143776 0.000000
                            }
                        }
                    }
                }
            }
            JOINT RightCollar
            {
                OFFSET -0.038406 0.205938 -0.001496
                CHANNELS 3 Zrotation Xrotation Yrotation
                JOINT RightShoulder
                {
                    OFFSET -0.132388 0.000000 0.000000
                    CHANNELS 3 Zrotation Xrotation Yrotation
                    JOINT RightElbow
                    {
                        OFFSET -0.250301 0.000000 0.000000
                        CHANNELS 3 Zrotation Xrotation Yrotation
                        JOINT RightWrist
                        {
                            OFFSET -0.285291 0.000000 0.000000
                            CHANNELS 3 Zrotation Xrotation Yrotation
                            End Site
                            {
                                OFFSET -0.000000 -0.143776 0.000000
                            }
                        }
                    }
                }
            }
        }
    }
    JOINT LeftHip
    {
        OFFSET 0.095851 0.000000 0.000000
        CHANNELS 3 Zrotation Xrotation Yrotation
        JOINT LeftKnee
        {
            OFFSET -0.000000 -0.406444 0.000000
            CHANNELS 3 Zrotation Xrotation Yrotation
            JOINT LeftAnkle
            {
                OFFSET -0.000000 -0.408443 0.000000
                CHANNELS 3 Zrotation Xrotation Yrotation
                JOINT LeftToe
                {
                    OFFSET -0.000000 -0.062303 0.143776
                    CHANNELS 3 Zrotation Xrotation Yrotation
                    End Site
                    {
                        OFFSET -0.000000 0.000000 0.038340
                    }
                }
            }
        }
    }
    JOINT RightHip
    {
        OFFSET -0.095851 0.000000 0.000000
        CHANNELS 3 Zrotation Xrotation Yrotation
        JOINT RightKnee
        {
            OFFSET -0.000000 -0.406444 0.000000
            CHANNELS 3 Zrotation Xrotation Yrotation
            JOINT RightAnkle
            {
                OFFSET -0.000000 -0.408443 0.000000
                CHANNELS 3 Zrotation Xrotation Yrotation
                JOINT RightToe
                {
                    OFFSET -0.000000 -0.062303 0.143776
                    CHANNELS 3 Zrotation Xrotation Yrotation
                    End Site
                    {
                        OFFSET -0.000000 0.000000 0.038340
                    }
                }
            }
        }
    }
}
MOTION
Frames:    14
Frame Time:    0.016667
0.083202    0.891088    0.162840    -8.251913    -7.136458    -155.718277    9.430711    9.710749    9.000084    -3.483624    5.583395    3.431327    7.376953    12.292173    -17.368807    0.695735    2.852627    -16.260555    7.354716    5.124932    -7.327470    -52.700111    45.566109    -24.823145    -3.359789    -0.422260    -24.618217    97.837959    -5.540312    1.535145    -6.687191    -11.364533    19.245779    21.141846    -1.487492    9.698116    -9.628277    -39.810707    10.398220    -82.967552    -14.330085    -38.247864    -0.369549    -10.981443    -1.608001    -1.434234    1.463591    -9.633540    -20.474794    10.691235    10.494130    0.000000    0.000000    0.000000    -15.398411    -7.794075    -7.106109    7.848845    15.508132    -9.041079    -2.716260    -17.932192    -17.538013    0.000000    0.000000    0.000000    
0.085098    0.891383    0.164393    -8.455635    -7.313078    -155.486465    9.502261    10.031228    9.616759    -3.285584    5.523817    3.636823    7.168456    12.200384    -17.605223    0.878421    2.900166    -16.588003    7.110107    5.256600    -7.471844    -52.737942    45.250992    -24.599764    -3.490886    -0.116300    -24.543833    97.706741    -5.318000    1.234114    -6.880767    -11.603947    19.928305    20.804750    -1.645958    10.000612    -9.293471    -40.154690    9.573669    -82.100349    -14.374201    -38.558437    -0.561459    -11.397040    -1.697958    -1.421372    1.702515    -9.820637    -20.982466    11.152172    10.686488    0.000000    0.000000    0.000000    -15.657868    -8.031482    -7.240381    7.923734    15.704876    -9.143805    -2.811068    -17.944920    -17.602543    0.000000    0.000000    0.000000    
0.086650    0.891414    0.165830    -8.644174    -7.447963    -155.330017    9.584679    10.387632    10.114714    -3.156036    5.416362    3.806422    7.159448    12.007382    -17.845390    0.511576    3.159220    -16.796400    7.011881    5.391373    -7.327453    -52.603447    45.431648    -24.848043    -3.607178    -0.338737    -24.028788    97.705109    -5.561234    1.481216    -6.966239    -11.583632    20.518751    20.323132    -1.885853    10.622235    -8.610251    -41.038048    9.082438    -80.862221    -14.793289    -39.330685    -0.740924    -11.745915    -1.599201    -1.451908    1.929914    -9.854954    -21.125713    11.596845    10.679404    0.000000    0.000000    0.000000    -15.922737    -8.287132    -7.354372    8.020074    16.002115    -9.095028    -2.912071    -18.062771    -17.724844    0.000000    0.000000    0.000000    
0.088359    0.891338    0.167082    -8.717555    -7.534309    -155.211563    9.790720    10.613768    10.557675    -3.108103    5.569742    3.969027    7.084530    11.659002    -17.971806    0.473703    3.339692    -16.961176    6.993134    5.335345    -7.319232    -52.894234    44.870789    -24.393986    -4.099213    -0.090044    -24.057716    97.448105    -5.447154    1.318475    -7.024562    -11.954768    21.360117    19.969522    -2.370406    10.695727    -7.267542    -41.924347    9.332465    -79.997398    -14.997945    -40.161076    -0.764601    -12.023702    -1.888678    -1.520575    2.032378    -9.510061    -21.229727    11.975204    10.637609    0.000000    0.000000    0.000000    -15.993985    -8.578733    -7.275229    8.078426    16.293751    -9.357456    -2.965390    -18.132267    -17.709232    0.000000    0.000000    0.000000    
0.089666    0.891313    0.167933    -8.890248    -7.579474    -155.232635    9.786771    10.993908    11.130548    -2.936174    5.414772    4.157991    7.023779    11.668434    -18.095234    0.298591    3.421393    -17.075808    6.822385    5.589645    -7.352453    -52.675247    45.182793    -24.609308    -3.930650    -0.396400    -23.663080    97.233841    -5.395747    1.561178    -7.156538    -12.091606    22.002310    20.043795    -1.509215    11.158158    -7.762014    -43.298588    8.455024    -77.788689    -16.128113    -41.142586    -0.877115    -12.136995    -1.920184    -1.596235    2.118505    -9.131548    -21.176485    12.233614    10.651376    0.000000    0.000000    0.000000    -16.226543    -8.763281    -7.108771    8.316927    16.535995    -9.386672    -3.170810    -18.190388    -17.877518    0.000000    0.000000    0.000000    
0.091057    0.891257    0.168739    -9.011374    -7.632816    -155.233292    9.854676    11.226954    11.569707    -2.814524    5.452848    4.310856    6.943572    11.656511    -18.235565    0.053156    3.435165    -17.202776    6.758374    5.637259    -7.457704    -52.774918    44.953655    -24.388475    -4.120139    -0.262826    -23.482800    97.055618    -5.326534    1.447892    -7.181635    -11.854978    22.454540    19.723675    -1.003389    11.875844    -7.466197    -44.990173    8.377605    -76.917747    -16.033369    -42.751389    -0.960659    -12.293456    -1.985866    -1.567513    2.193424    -9.311367    -21.423815    12.372411    11.017467    0.000000    0.000000    0.000000    -16.383396    -9.029058    -7.093867    8.457379    16.984953    -9.421017    -3.262652    -18.330769    -17.929079    0.000000    0.000000    0.000000    
0.092374    0.890945    0.169617    -9.053273    -7.724469    -155.260010    9.852196    11.407862    12.027798    -2.616052    5.480344    4.460049    7.111128    11.468506    -18.435631    -0.763922    3.459495    -17.256311    6.677613    5.571105    -7.501923    -52.858028    44.838291    -24.243111    -4.501272    -0.200273    -23.203224    97.262421    -5.415730    1.468608    -7.525735    -12.303681    22.991369    20.284916    -0.079699    12.101616    -7.703167    -46.434452    8.249794    -74.983910    -16.647121    -43.840485    -1.005382    -12.530356    -2.065156    -1.550764    2.337476    -9.173562    -21.381596    12.436351    11.039250    0.000000    0.000000    0.000000    -16.571009    -9.362487    -7.099270    8.750481    17.264805    -9.293545    -3.471533    -18.354227    -18.174700    0.000000    0.000000    0.000000    
0.093613    0.890607    0.170407    -9.071095    -7.828678    -155.255936    9.874067    11.642085    12.335702    -2.546547    5.340855    4.563784    6.920020    11.359678    -18.432676    -0.798157    3.694871    -17.297707    6.698905    5.494039    -7.347390    -53.053822    44.750782    -23.998566    -4.751010    0.033144    -23.137543    97.057022    -5.404830    1.273266    -7.538405    -12.354572    23.364445    20.426994    0.427844    12.689233    -7.664532    -47.808430    8.255784    -73.004341    -17.509878    -44.798935    -1.094871    -12.778556    -2.238276    -1.488028    2.491544    -8.209352    -21.181768    12.668055    10.457521    0.000000    0.000000    0.000000    -16.708494    -9.708315    -7.370235    8.888555    17.677309    -9.114061    -3.572336    -18.485409    -18.194298    0.000000    0.000000    0.000000    
0.094630    0.890376    0.171041    -9.108703    -7.893974    -155.240601    9.874964    11.873703    12.505438    -2.569266    5.079752    4.622741    6.419106    12.117250    -18.304142    0.440709    3.079726    -17.429638    6.729086    5.776316    -7.326922    -53.037407    44.732441    -24.059175    -4.748129    0.091491    -22.803116    97.187454    -5.463579    1.209846    -7.264069    -12.253118    24.143494    20.408270    0.774062    12.813077    -7.371273    -48.849945    8.626629    -72.084396    -17.860031    -45.644733    -1.216190    -12.877683    -2.297573    -1.327872    2.446612    -8.063090    -21.265125    12.820115    10.421249    0.000000    0.000000    0.000000    -16.774464    -9.936236    -7.752778    8.845116    18.060286    -9.039355    -3.580615    -18.650112    -17.958248    0.000000    0.000000    0.000000    
0.095512    0.890085    0.171397    -9.134207    -7.892652    -155.237289    9.867260    12.066495    12.744457    -2.453087    5.035289    4.701626    6.517489    12.124434    -18.417561    -0.097634    3.040622    -17.442104    6.611796    5.881960    -7.327755    -52.801994    45.067860    -24.146490    -4.501938    0.072411    -22.754328    96.742310    -5.535176    1.160119    -7.331727    -12.210293    24.290157    20.628300    0.636244    13.284178    -6.704048    -49.479385    9.371892    -71.568817    -18.020695    -46.173382    -1.237785    -12.952152    -2.356542    -1.331469    2.515499    -7.795983    -21.092709    12.869425    10.302549    0.000000    0.000000    0.000000    -16.833235    -10.072231    -7.808407    8.968811    18.282093    -9.181351    -3.615723    -18.756380    -17.829817    0.000000    0.000000    0.000000    
0.096306    0.889792    0.171614    -9.141509    -7.924145    -155.119019    9.842394    12.029171    12.939147    -2.376754    5.281790    4.766331    6.525338    12.127869    -18.426292    -0.076933    2.757934    -17.452497    6.724322    5.766381    -7.387253    -52.931206    44.844185    -24.046812    -4.576738    0.273583    -22.847303    96.528099    -5.340674    0.956405    -7.260001    -12.409865    24.382576    20.978334    1.099615    13.628551    -6.937982    -50.434650    9.625105    -70.720016    -18.613041    -46.872017    -1.237950    -13.095420    -2.510672    -1.404153    2.660837    -7.786268    -20.923510    12.862073    10.340008    0.000000    0.000000    0.000000    -16.932238    -10.194870    -7.830913    9.178119    18.502766    -9.424251    -3.643153    -18.897076    -17.723633    0.000000    0.000000    0.000000    
0.097566    0.889267    0.172154    -9.060968    -8.029620    -154.947189    9.796251    11.986603    13.006269    -2.288555    5.371750    4.783541    6.346679    12.139671    -18.378382    0.156962    2.725328    -17.479649    6.695746    5.753361    -7.375627    -52.910892    44.872341    -24.061735    -4.369838    0.202615    -22.794405    96.411148    -5.460804    0.984675    -7.115890    -12.345559    24.455502    21.151743    0.865803    13.858494    -6.279753    -50.995316    10.761215    -69.899239    -18.985857    -47.226280    -1.180251    -13.393760    -2.548063    -1.452609    2.858276    -7.864409    -20.702003    12.772568    10.229192    0.000000    0.000000    0.000000    -16.962229    -10.518411    -7.911438    9.346195    18.887592    -9.525110    -3.751124    -19.070965    -17.801689    0.000000    0.000000    0.000000    
0.098242    0.888759    0.172275    -9.026221    -8.043365    -154.759552    9.738271    11.987815    12.960943    -2.198615    5.434165    4.763362    6.162220    12.146630    -18.348042    0.350740    2.837540    -17.520973    6.653479    5.774068    -7.279223    -52.911896    44.715199    -24.093105    -4.376695    0.173818    -22.754698    96.470978    -5.560900    1.021691    -6.898538    -12.304750    24.473083    21.424137    0.671400    14.062285    -5.659342    -51.540962    12.028292    -68.546097    -19.850441    -47.371414    -1.177114    -13.492493    -2.614025    -1.434941    2.937669    -7.983974    -20.618065    12.679715    10.188366    0.000000    0.000000    0.000000    -17.038410    -10.650270    -8.035773    9.551676    19.206736    -9.483897    -3.874661    -19.257225    -17.975010    0.000000    0.000000    0.000000    
0.098754    0.888424    0.171985    -9.014434    -7.982822    -154.578186    9.741373    11.945439    12.856176    -2.137642    5.760839    4.730228    6.516871    11.597707    -18.342693    -0.996581    3.258108    -17.258698    6.585549    5.612946    -7.199348    -52.880814    44.806007    -24.029510    -4.252635    -0.085081    -22.871054    96.793411    -5.549821    1.275193    -6.921998    -12.560816    24.295769    22.043198    0.211606    14.124254    -4.298961    -51.920433    14.110578    -67.663795    -20.353905    -47.531624    -1.159572    -13.408933    -2.614083    -1.385798    2.843984    -8.266251    -20.672787    12.669808    10.242502    0.000000    0.000000    0.000000    -17.069170    -10.556726    -8.020515    9.755924    19.182194    -9.474315    -4.098583    -19.252266    -18.200727    0.000000    0.000000    0.000000    
